G04 #@! TF.GenerationSoftware,KiCad,Pcbnew,(5.0.1)-3*
G04 #@! TF.CreationDate,2018-10-30T21:40:18+09:00*
G04 #@! TF.ProjectId,Zirconia,5A6972636F6E69612E6B696361645F70,rev?*
G04 #@! TF.SameCoordinates,Original*
G04 #@! TF.FileFunction,Soldermask,Bot*
G04 #@! TF.FilePolarity,Negative*
%FSLAX46Y46*%
G04 Gerber Fmt 4.6, Leading zero omitted, Abs format (unit mm)*
G04 Created by KiCad (PCBNEW (5.0.1)-3) date 2018/10/30 21:40:18*
%MOMM*%
%LPD*%
G01*
G04 APERTURE LIST*
%ADD10C,1.000000*%
%ADD11C,1.706880*%
%ADD12C,2.009140*%
%ADD13R,0.708660X1.208000*%
%ADD14R,0.708660X1.308100*%
%ADD15R,1.208000X0.708660*%
%ADD16R,1.308100X0.708660*%
%ADD17R,1.508000X1.508000*%
%ADD18C,2.908000*%
%ADD19C,1.708000*%
%ADD20R,1.308100X1.308100*%
%ADD21C,1.508760*%
G04 APERTURE END LIST*
D10*
X177000680Y-50401100D02*
X177000680Y-55401100D01*
X177000680Y-38401100D02*
X177000680Y-43401100D01*
D11*
G04 #@! TO.C,P6*
X117300680Y-47650400D03*
X117300680Y-46151800D03*
G04 #@! TD*
D12*
G04 #@! TO.C,P9*
X169570680Y-24911100D03*
X172110680Y-24911100D03*
X174650680Y-24911100D03*
X177190680Y-24911100D03*
G04 #@! TD*
G04 #@! TO.C,P8*
X169650680Y-33721100D03*
X172190680Y-33721100D03*
X174730680Y-33721100D03*
X177270680Y-33721100D03*
G04 #@! TD*
D11*
G04 #@! TO.C,Q1*
X121280147Y-33851806D03*
X121721213Y-31350394D03*
G04 #@! TD*
G04 #@! TO.C,Q2*
X104373228Y-46147587D03*
X106428132Y-44654613D03*
G04 #@! TD*
G04 #@! TO.C,Q3*
X106428132Y-49147587D03*
X104373228Y-47654613D03*
G04 #@! TD*
G04 #@! TO.C,Q4*
X121721213Y-62451806D03*
X121280147Y-59950394D03*
G04 #@! TD*
D13*
G04 #@! TO.C,U8*
X128899920Y-45251100D03*
D14*
X129301240Y-45300900D03*
X129700020Y-45300900D03*
X130101340Y-45300900D03*
X130500120Y-45300900D03*
X130901440Y-45300900D03*
D15*
X131550680Y-45900340D03*
D16*
X131500880Y-46301660D03*
X131500880Y-46700440D03*
X131500880Y-47101760D03*
X131500880Y-47500540D03*
D15*
X131550680Y-47901860D03*
D14*
X130901440Y-48501300D03*
X130500120Y-48501300D03*
X130101340Y-48501300D03*
X129700020Y-48501300D03*
X129301240Y-48501300D03*
X128899920Y-48501300D03*
D15*
X128250680Y-47901860D03*
D16*
X128300480Y-47500540D03*
X128300480Y-47101760D03*
X128300480Y-46700440D03*
X128300480Y-46301660D03*
X128300480Y-45900340D03*
D17*
X129900680Y-46901100D03*
G04 #@! TD*
D18*
G04 #@! TO.C,P7*
X125800680Y-35401100D03*
X125800680Y-58401100D03*
X141800680Y-35401100D03*
X141800680Y-58401100D03*
G04 #@! TD*
D11*
G04 #@! TO.C,D4*
X115021213Y-59851806D03*
X114580147Y-57350394D03*
G04 #@! TD*
G04 #@! TO.C,D3*
X109428132Y-51947587D03*
X107373228Y-50454613D03*
G04 #@! TD*
G04 #@! TO.C,D2*
X107373228Y-43347587D03*
X109428132Y-41854613D03*
G04 #@! TD*
G04 #@! TO.C,D1*
X114580147Y-36451806D03*
X115021213Y-33950394D03*
G04 #@! TD*
D19*
G04 #@! TO.C,SW2*
X112000680Y-44361100D03*
X112000680Y-46901100D03*
X112000680Y-49441100D03*
G04 #@! TD*
D20*
G04 #@! TO.C,C16*
X129300580Y-50401100D03*
X130900780Y-50401100D03*
G04 #@! TD*
G04 #@! TO.C,C17*
X129300580Y-43401100D03*
X130900780Y-43401100D03*
G04 #@! TD*
D21*
G04 #@! TO.C,P4*
X145300680Y-54301100D03*
G04 #@! TD*
G04 #@! TO.C,P3*
X145300680Y-52601100D03*
G04 #@! TD*
G04 #@! TO.C,P2*
X145300680Y-39501100D03*
G04 #@! TD*
G04 #@! TO.C,P1*
X145300680Y-41201100D03*
G04 #@! TD*
M02*
