G04 #@! TF.GenerationSoftware,KiCad,Pcbnew,(5.0.1)-3*
G04 #@! TF.CreationDate,2018-10-30T21:40:18+09:00*
G04 #@! TF.ProjectId,Zirconia,5A6972636F6E69612E6B696361645F70,rev?*
G04 #@! TF.SameCoordinates,Original*
G04 #@! TF.FileFunction,Soldermask,Top*
G04 #@! TF.FilePolarity,Negative*
%FSLAX46Y46*%
G04 Gerber Fmt 4.6, Leading zero omitted, Abs format (unit mm)*
G04 Created by KiCad (PCBNEW (5.0.1)-3) date 2018/10/30 21:40:18*
%MOMM*%
%LPD*%
G01*
G04 APERTURE LIST*
%ADD10R,1.108000X1.708000*%
%ADD11R,1.308100X1.308100*%
%ADD12C,1.706880*%
%ADD13C,2.009140*%
%ADD14R,1.508760X0.756920*%
%ADD15R,2.508000X1.308100*%
%ADD16R,1.308100X2.508000*%
%ADD17R,1.308000X1.008000*%
%ADD18R,1.008000X1.308000*%
%ADD19R,4.508500X2.108200*%
%ADD20R,1.508760X1.407160*%
%ADD21R,0.758000X1.108000*%
%ADD22R,0.758000X1.308000*%
%ADD23R,1.308000X0.758000*%
%ADD24C,2.908000*%
%ADD25R,1.907540X1.107440*%
%ADD26R,2.308860X1.706880*%
%ADD27C,1.708000*%
%ADD28R,0.808000X1.308000*%
%ADD29R,1.308000X0.808000*%
%ADD30R,1.508760X2.108200*%
%ADD31C,1.508760*%
G04 APERTURE END LIST*
D10*
G04 #@! TO.C,U7*
X174700680Y-31001100D03*
X175700680Y-31001100D03*
X176700680Y-31001100D03*
X176700680Y-28401100D03*
X174700680Y-28401100D03*
G04 #@! TD*
D11*
G04 #@! TO.C,R12*
X113700780Y-55701100D03*
X112100580Y-55701100D03*
G04 #@! TD*
D12*
G04 #@! TO.C,P6*
X117300680Y-47650400D03*
X117300680Y-46151800D03*
G04 #@! TD*
D13*
G04 #@! TO.C,P9*
X169570680Y-24911100D03*
X172110680Y-24911100D03*
X174650680Y-24911100D03*
X177190680Y-24911100D03*
G04 #@! TD*
G04 #@! TO.C,P8*
X169650680Y-33721100D03*
X172190680Y-33721100D03*
X174730680Y-33721100D03*
X177270680Y-33721100D03*
G04 #@! TD*
D14*
G04 #@! TO.C,U3*
X135500500Y-44350780D03*
X135500500Y-43850400D03*
X135500500Y-43350020D03*
X135500500Y-42852180D03*
X135500500Y-42351800D03*
X135500500Y-41851420D03*
X133300860Y-41851420D03*
X133300860Y-42351800D03*
X133300860Y-42852180D03*
X133300860Y-43350020D03*
X133300860Y-43850400D03*
X133300860Y-44350780D03*
G04 #@! TD*
D15*
G04 #@! TO.C,U6*
X128399540Y-55101100D03*
X131401820Y-55102140D03*
X131400680Y-53700060D03*
X128400680Y-53700060D03*
G04 #@! TD*
G04 #@! TO.C,U5*
X131401820Y-38701100D03*
X128399540Y-38700060D03*
X128400680Y-40102140D03*
X131400680Y-40102140D03*
G04 #@! TD*
D16*
G04 #@! TO.C,U10*
X177000680Y-54402240D03*
X177000680Y-51399960D03*
X177000680Y-51401100D03*
X177000680Y-54401100D03*
G04 #@! TD*
G04 #@! TO.C,U2*
X177000680Y-42403380D03*
X177000680Y-39401100D03*
X177000680Y-39402240D03*
X177000680Y-42402240D03*
G04 #@! TD*
D17*
G04 #@! TO.C,Q7*
X113900680Y-53951100D03*
X113900680Y-52051100D03*
X111900680Y-53001100D03*
G04 #@! TD*
G04 #@! TO.C,Q6*
X113500680Y-39551100D03*
X113500680Y-37651100D03*
X111500680Y-38601100D03*
G04 #@! TD*
D18*
G04 #@! TO.C,Q5*
X120850680Y-39101100D03*
X122750680Y-39101100D03*
X121800680Y-37101100D03*
G04 #@! TD*
D17*
G04 #@! TO.C,Q8*
X121000680Y-57951100D03*
X121000680Y-56051100D03*
X119000680Y-57001100D03*
G04 #@! TD*
D19*
G04 #@! TO.C,L2*
X141300680Y-51401840D03*
X141300680Y-54800360D03*
G04 #@! TD*
G04 #@! TO.C,L1*
X141300680Y-42400360D03*
X141300680Y-39001840D03*
G04 #@! TD*
D20*
G04 #@! TO.C,SW1*
X146600780Y-45751320D03*
X145000580Y-45751320D03*
X145000580Y-49850880D03*
X146600780Y-49850880D03*
G04 #@! TD*
D12*
G04 #@! TO.C,Q1*
X121280147Y-33851806D03*
X121721213Y-31350394D03*
G04 #@! TD*
G04 #@! TO.C,Q2*
X104373228Y-46147587D03*
X106428132Y-44654613D03*
G04 #@! TD*
G04 #@! TO.C,Q3*
X106428132Y-49147587D03*
X104373228Y-47654613D03*
G04 #@! TD*
G04 #@! TO.C,Q4*
X121721213Y-62451806D03*
X121280147Y-59950394D03*
G04 #@! TD*
D21*
G04 #@! TO.C,U1*
X174150680Y-39200000D03*
D22*
X173650680Y-39301100D03*
X173150680Y-39301100D03*
X172650680Y-39301100D03*
D23*
X171800680Y-40151100D03*
X171800680Y-40651100D03*
X171800680Y-41151100D03*
X171800680Y-41651100D03*
D22*
X172650680Y-42501100D03*
X173150680Y-42501100D03*
X173650680Y-42501100D03*
D21*
X174150680Y-42600000D03*
D23*
X175000680Y-41651100D03*
X175000680Y-41151100D03*
X175000680Y-40651100D03*
X175000680Y-40151100D03*
G04 #@! TD*
D21*
G04 #@! TO.C,U9*
X174150680Y-51200000D03*
D22*
X173650680Y-51301100D03*
X173150680Y-51301100D03*
X172650680Y-51301100D03*
D23*
X171800680Y-52151100D03*
X171800680Y-52651100D03*
X171800680Y-53151100D03*
X171800680Y-53651100D03*
D22*
X172650680Y-54501100D03*
X173150680Y-54501100D03*
X173650680Y-54501100D03*
D21*
X174150680Y-54600000D03*
D23*
X175000680Y-53651100D03*
X175000680Y-53151100D03*
X175000680Y-52651100D03*
X175000680Y-52151100D03*
G04 #@! TD*
D24*
G04 #@! TO.C,P7*
X125800680Y-35401100D03*
X125800680Y-58401100D03*
X141800680Y-35401100D03*
X141800680Y-58401100D03*
G04 #@! TD*
D12*
G04 #@! TO.C,D4*
X115021213Y-59851806D03*
X114580147Y-57350394D03*
G04 #@! TD*
G04 #@! TO.C,D3*
X109428132Y-51947587D03*
X107373228Y-50454613D03*
G04 #@! TD*
G04 #@! TO.C,D2*
X107373228Y-43347587D03*
X109428132Y-41854613D03*
G04 #@! TD*
G04 #@! TO.C,D1*
X114580147Y-36451806D03*
X115021213Y-33950394D03*
G04 #@! TD*
D25*
G04 #@! TO.C,P5*
X139999620Y-45399960D03*
X139999620Y-46400720D03*
X139999620Y-47401480D03*
X139999620Y-48402240D03*
D26*
X142501520Y-44102020D03*
X142501520Y-49700180D03*
G04 #@! TD*
D27*
G04 #@! TO.C,SW2*
X112000680Y-44361100D03*
X112000680Y-46901100D03*
X112000680Y-49441100D03*
G04 #@! TD*
D28*
G04 #@! TO.C,U4*
X126650680Y-43401100D03*
X126150680Y-43401100D03*
X125650680Y-43401100D03*
X125150680Y-43401100D03*
X124650680Y-43401100D03*
X124150680Y-43401100D03*
X123650680Y-43401100D03*
X123150680Y-43401100D03*
X122650680Y-43401100D03*
X122150680Y-43401100D03*
X121650680Y-43401100D03*
X121150680Y-43401100D03*
D29*
X120400680Y-44151100D03*
X120400680Y-44651100D03*
X120400680Y-45151100D03*
X120400680Y-45651100D03*
X120400680Y-46151100D03*
X120400680Y-46651100D03*
X120400680Y-47151100D03*
X120400680Y-47651100D03*
X120400680Y-48151100D03*
X120400680Y-48651100D03*
X120400680Y-49151100D03*
X120400680Y-49651100D03*
D28*
X121150680Y-50401100D03*
X121650680Y-50401100D03*
X122150680Y-50401100D03*
X122650680Y-50401100D03*
X123150680Y-50401100D03*
X123650680Y-50401100D03*
X124150680Y-50401100D03*
X124650680Y-50401100D03*
X125150680Y-50401100D03*
X125650680Y-50401100D03*
X126150680Y-50401100D03*
X126650680Y-50401100D03*
D29*
X127400680Y-49651100D03*
X127400680Y-49151100D03*
X127400680Y-48651100D03*
X127400680Y-48151100D03*
X127400680Y-47651100D03*
X127400680Y-47151100D03*
X127400680Y-46651100D03*
X127400680Y-46151100D03*
X127400680Y-45651100D03*
X127400680Y-45151100D03*
X127400680Y-44651100D03*
X127400680Y-44151100D03*
G04 #@! TD*
D11*
G04 #@! TO.C,D10*
X172790580Y-26721100D03*
X174390780Y-26721100D03*
G04 #@! TD*
G04 #@! TO.C,D9*
X109200680Y-49201200D03*
X109200680Y-47601000D03*
G04 #@! TD*
G04 #@! TO.C,D8*
X132500780Y-52101100D03*
X130900580Y-52101100D03*
G04 #@! TD*
G04 #@! TO.C,D7*
X132500780Y-50901100D03*
X130900580Y-50901100D03*
G04 #@! TD*
G04 #@! TO.C,D6*
X132500780Y-49701100D03*
X130900580Y-49701100D03*
G04 #@! TD*
G04 #@! TO.C,D5*
X132500780Y-48501100D03*
X130900580Y-48501100D03*
G04 #@! TD*
G04 #@! TO.C,C1*
X176000680Y-41701300D03*
X176000680Y-40101100D03*
G04 #@! TD*
G04 #@! TO.C,C19*
X177390780Y-26721100D03*
X175790580Y-26721100D03*
G04 #@! TD*
G04 #@! TO.C,C18*
X176000680Y-53701100D03*
X176000680Y-52100900D03*
G04 #@! TD*
G04 #@! TO.C,C15*
X117500780Y-50601100D03*
X115900580Y-50601100D03*
G04 #@! TD*
G04 #@! TO.C,C13*
X120700680Y-53401200D03*
X120700680Y-51801000D03*
G04 #@! TD*
G04 #@! TO.C,R13*
X117700780Y-57001100D03*
X116100580Y-57001100D03*
G04 #@! TD*
G04 #@! TO.C,C11*
X128700680Y-49701000D03*
X128700680Y-51301200D03*
G04 #@! TD*
G04 #@! TO.C,C10*
X110600780Y-56901100D03*
X109000580Y-56901100D03*
G04 #@! TD*
G04 #@! TO.C,C9*
X110600780Y-55601100D03*
X109000580Y-55601100D03*
G04 #@! TD*
G04 #@! TO.C,C8*
X130400680Y-42501000D03*
X130400680Y-44101200D03*
G04 #@! TD*
G04 #@! TO.C,C7*
X108700680Y-37001000D03*
X108700680Y-38601200D03*
G04 #@! TD*
G04 #@! TO.C,C6*
X129200680Y-42501000D03*
X129200680Y-44101200D03*
G04 #@! TD*
G04 #@! TO.C,C5*
X124600580Y-41001100D03*
X126200780Y-41001100D03*
G04 #@! TD*
G04 #@! TO.C,C4*
X123400780Y-41001100D03*
X121800580Y-41001100D03*
G04 #@! TD*
G04 #@! TO.C,C2*
X110100680Y-37001000D03*
X110100680Y-38601200D03*
G04 #@! TD*
G04 #@! TO.C,C14*
X120700780Y-54601100D03*
X119100580Y-54601100D03*
G04 #@! TD*
G04 #@! TO.C,R28*
X169790580Y-28721100D03*
X171390780Y-28721100D03*
G04 #@! TD*
G04 #@! TO.C,C12*
X119500680Y-52701200D03*
X119500680Y-51101000D03*
G04 #@! TD*
G04 #@! TO.C,R11*
X110900680Y-39901000D03*
X110900680Y-41501200D03*
G04 #@! TD*
G04 #@! TO.C,R10*
X113000580Y-41001100D03*
X114600780Y-41001100D03*
G04 #@! TD*
G04 #@! TO.C,R9*
X115200680Y-39501200D03*
X115200680Y-37901000D03*
G04 #@! TD*
G04 #@! TO.C,R8*
X119200780Y-34501100D03*
X117600580Y-34501100D03*
G04 #@! TD*
G04 #@! TO.C,R7*
X117600580Y-37301100D03*
X119200780Y-37301100D03*
G04 #@! TD*
G04 #@! TO.C,R6*
X119200780Y-35901100D03*
X117600580Y-35901100D03*
G04 #@! TD*
G04 #@! TO.C,R5*
X144800580Y-44001100D03*
X146400780Y-44001100D03*
G04 #@! TD*
G04 #@! TO.C,R4*
X122700680Y-56801000D03*
X122700680Y-58401200D03*
G04 #@! TD*
G04 #@! TO.C,R3*
X107700780Y-47601100D03*
X106100580Y-47601100D03*
G04 #@! TD*
G04 #@! TO.C,R2*
X107700780Y-46201100D03*
X106100580Y-46201100D03*
G04 #@! TD*
G04 #@! TO.C,R1*
X122700780Y-35601100D03*
X121100580Y-35601100D03*
G04 #@! TD*
G04 #@! TO.C,R14*
X111200780Y-54101100D03*
X109600580Y-54101100D03*
G04 #@! TD*
G04 #@! TO.C,R25*
X169790580Y-31721100D03*
X171390780Y-31721100D03*
G04 #@! TD*
G04 #@! TO.C,R26*
X171390780Y-26721100D03*
X169790580Y-26721100D03*
G04 #@! TD*
G04 #@! TO.C,R24*
X109200680Y-44601000D03*
X109200680Y-46201200D03*
G04 #@! TD*
G04 #@! TO.C,R23*
X133700580Y-52101100D03*
X135300780Y-52101100D03*
G04 #@! TD*
G04 #@! TO.C,R22*
X133700580Y-50901100D03*
X135300780Y-50901100D03*
G04 #@! TD*
G04 #@! TO.C,R21*
X133700580Y-49701100D03*
X135300780Y-49701100D03*
G04 #@! TD*
G04 #@! TO.C,R20*
X133700580Y-48501100D03*
X135300780Y-48501100D03*
G04 #@! TD*
G04 #@! TO.C,R19*
X118500680Y-41601000D03*
X118500680Y-43201200D03*
G04 #@! TD*
G04 #@! TO.C,R18*
X115700680Y-41601000D03*
X115700680Y-43201200D03*
G04 #@! TD*
G04 #@! TO.C,R17*
X118100780Y-58701100D03*
X116500580Y-58701100D03*
G04 #@! TD*
G04 #@! TO.C,R15*
X122600680Y-54901200D03*
X122600680Y-53301000D03*
G04 #@! TD*
G04 #@! TO.C,R16*
X124000680Y-53301000D03*
X124000680Y-54901200D03*
G04 #@! TD*
G04 #@! TO.C,R27*
X171390780Y-30221100D03*
X169790580Y-30221100D03*
G04 #@! TD*
D30*
G04 #@! TO.C,C3*
X130460480Y-46931100D03*
X133660880Y-46931100D03*
G04 #@! TD*
D31*
G04 #@! TO.C,P4*
X145300680Y-54301100D03*
G04 #@! TD*
G04 #@! TO.C,P3*
X145300680Y-52601100D03*
G04 #@! TD*
G04 #@! TO.C,P2*
X145300680Y-39501100D03*
G04 #@! TD*
G04 #@! TO.C,P1*
X145300680Y-41201100D03*
G04 #@! TD*
D10*
G04 #@! TO.C,U11*
X117300680Y-55101100D03*
X115300680Y-55101100D03*
X115300680Y-52501100D03*
X116300680Y-52501100D03*
X117300680Y-52501100D03*
G04 #@! TD*
M02*
