G04 #@! TF.GenerationSoftware,KiCad,Pcbnew,(5.0.1)-3*
G04 #@! TF.CreationDate,2018-10-30T21:40:18+09:00*
G04 #@! TF.ProjectId,Zirconia,5A6972636F6E69612E6B696361645F70,rev?*
G04 #@! TF.SameCoordinates,Original*
G04 #@! TF.FileFunction,Legend,Top*
G04 #@! TF.FilePolarity,Positive*
%FSLAX46Y46*%
G04 Gerber Fmt 4.6, Leading zero omitted, Abs format (unit mm)*
G04 Created by KiCad (PCBNEW (5.0.1)-3) date 2018/10/30 21:40:18*
%MOMM*%
%LPD*%
G01*
G04 APERTURE LIST*
%ADD10C,0.150000*%
%ADD11C,0.200000*%
%ADD12C,1.000000*%
%ADD13C,0.127000*%
%ADD14C,0.381000*%
%ADD15C,0.248920*%
%ADD16C,0.152400*%
G04 APERTURE END LIST*
D10*
X127472108Y-43063004D02*
X127129251Y-43063004D01*
X127300680Y-43063004D02*
X127300680Y-42263004D01*
X127243537Y-42377290D01*
X127186394Y-42453480D01*
X127129251Y-42491576D01*
X136272108Y-45263004D02*
X135929251Y-45263004D01*
X136100680Y-45263004D02*
X136100680Y-44463004D01*
X136043537Y-44577290D01*
X135986394Y-44653480D01*
X135929251Y-44691576D01*
D11*
X113795918Y-45586814D02*
X114405441Y-45586814D01*
X113795918Y-47586814D02*
X114405441Y-47586814D01*
X114100680Y-48043957D02*
X114100680Y-47129671D01*
D10*
X136857822Y-45033242D02*
X137314965Y-45033242D01*
X137086394Y-45338004D02*
X137086394Y-44728480D01*
X137800680Y-44918957D02*
X137886394Y-44957052D01*
X137914965Y-44995147D01*
X137943537Y-45071338D01*
X137943537Y-45185623D01*
X137914965Y-45261814D01*
X137886394Y-45299909D01*
X137829251Y-45338004D01*
X137600680Y-45338004D01*
X137600680Y-44538004D01*
X137800680Y-44538004D01*
X137857822Y-44576100D01*
X137886394Y-44614195D01*
X137914965Y-44690385D01*
X137914965Y-44766576D01*
X137886394Y-44842766D01*
X137857822Y-44880861D01*
X137800680Y-44918957D01*
X137600680Y-44918957D01*
X138172108Y-45109433D02*
X138457822Y-45109433D01*
X138114965Y-45338004D02*
X138314965Y-44538004D01*
X138514965Y-45338004D01*
X138629251Y-44538004D02*
X138972108Y-44538004D01*
X138800680Y-45338004D02*
X138800680Y-44538004D01*
X139086394Y-44538004D02*
X139429251Y-44538004D01*
X139257822Y-45338004D02*
X139257822Y-44538004D01*
X137643537Y-45926100D02*
X137586394Y-45888004D01*
X137500680Y-45888004D01*
X137414965Y-45926100D01*
X137357822Y-46002290D01*
X137329251Y-46078480D01*
X137300680Y-46230861D01*
X137300680Y-46345147D01*
X137329251Y-46497528D01*
X137357822Y-46573719D01*
X137414965Y-46649909D01*
X137500680Y-46688004D01*
X137557822Y-46688004D01*
X137643537Y-46649909D01*
X137672108Y-46611814D01*
X137672108Y-46345147D01*
X137557822Y-46345147D01*
X137929251Y-46688004D02*
X137929251Y-45888004D01*
X138272108Y-46688004D01*
X138272108Y-45888004D01*
X138557822Y-46688004D02*
X138557822Y-45888004D01*
X138700680Y-45888004D01*
X138786394Y-45926100D01*
X138843537Y-46002290D01*
X138872108Y-46078480D01*
X138900680Y-46230861D01*
X138900680Y-46345147D01*
X138872108Y-46497528D01*
X138843537Y-46573719D01*
X138786394Y-46649909D01*
X138700680Y-46688004D01*
X138557822Y-46688004D01*
X138000680Y-48038004D02*
X137800680Y-47657052D01*
X137657822Y-48038004D02*
X137657822Y-47238004D01*
X137886394Y-47238004D01*
X137943537Y-47276100D01*
X137972108Y-47314195D01*
X138000680Y-47390385D01*
X138000680Y-47504671D01*
X137972108Y-47580861D01*
X137943537Y-47618957D01*
X137886394Y-47657052D01*
X137657822Y-47657052D01*
X138200680Y-47238004D02*
X138600680Y-48038004D01*
X138600680Y-47238004D02*
X138200680Y-48038004D01*
X137643537Y-48588004D02*
X137986394Y-48588004D01*
X137814965Y-49388004D02*
X137814965Y-48588004D01*
X138129251Y-48588004D02*
X138529251Y-49388004D01*
X138529251Y-48588004D02*
X138129251Y-49388004D01*
X175472108Y-51463004D02*
X175129251Y-51463004D01*
X175300680Y-51463004D02*
X175300680Y-50663004D01*
X175243537Y-50777290D01*
X175186394Y-50853480D01*
X175129251Y-50891576D01*
X175472108Y-39463004D02*
X175129251Y-39463004D01*
X175300680Y-39463004D02*
X175300680Y-38663004D01*
X175243537Y-38777290D01*
X175186394Y-38853480D01*
X175129251Y-38891576D01*
D12*
X170900680Y-35401100D02*
X167900680Y-35401100D01*
X170900680Y-50401100D02*
X170900680Y-55401100D01*
X170900680Y-43401100D02*
X170900680Y-38401100D01*
X164900680Y-44401100D02*
X164900680Y-49401100D01*
X164900680Y-46901100D02*
X162700680Y-46901100D01*
X94900680Y-46901100D02*
X96900680Y-46901100D01*
D10*
G04 #@! TO.C,U7*
X174200680Y-28801100D02*
X174200680Y-30601100D01*
X177200680Y-28801100D02*
X174200680Y-28801100D01*
X177200680Y-30601100D02*
X177200680Y-28801100D01*
X174200680Y-30601100D02*
X177200680Y-30601100D01*
D13*
G04 #@! TO.C,R12*
X112100580Y-55302320D02*
X113700780Y-55302320D01*
X113700780Y-55302320D02*
X113700780Y-56099880D01*
X113700780Y-56099880D02*
X112100580Y-56099880D01*
X112100580Y-56099880D02*
X112100580Y-55302320D01*
D14*
G04 #@! TO.C,P6*
X118801820Y-44401740D02*
X114801320Y-44401740D01*
X114801320Y-44401740D02*
X114801320Y-49400460D01*
X114801320Y-49400460D02*
X118801820Y-49400460D01*
X118801820Y-49400460D02*
X118801820Y-44401740D01*
G04 #@! TO.C,U3*
X135401440Y-44602240D02*
X135401440Y-41599960D01*
X135401440Y-41599960D02*
X133399920Y-41599960D01*
X133399920Y-41599960D02*
X133399920Y-44602240D01*
X133399920Y-44602240D02*
X135401440Y-44602240D01*
D10*
G04 #@! TO.C,U6*
X127400680Y-54101100D02*
X127400680Y-54701100D01*
X127400680Y-54701100D02*
X132400680Y-54701100D01*
X132400680Y-54701100D02*
X132400680Y-54101100D01*
X132400680Y-54101100D02*
X127400680Y-54101100D01*
G04 #@! TO.C,U5*
X132400680Y-39701100D02*
X132400680Y-39101100D01*
X132400680Y-39101100D02*
X127400680Y-39101100D01*
X127400680Y-39101100D02*
X127400680Y-39701100D01*
X127400680Y-39701100D02*
X132400680Y-39701100D01*
G04 #@! TO.C,Q7*
X112200680Y-54501100D02*
X113600680Y-54501100D01*
X113600680Y-54501100D02*
X113600680Y-51501100D01*
X113600680Y-51501100D02*
X112200680Y-51501100D01*
X112200680Y-51501100D02*
X112200680Y-54501100D01*
G04 #@! TO.C,Q6*
X111800680Y-40101100D02*
X113200680Y-40101100D01*
X113200680Y-40101100D02*
X113200680Y-37101100D01*
X113200680Y-37101100D02*
X111800680Y-37101100D01*
X111800680Y-37101100D02*
X111800680Y-40101100D01*
G04 #@! TO.C,Q5*
X120300680Y-37401100D02*
X120300680Y-38801100D01*
X120300680Y-38801100D02*
X123300680Y-38801100D01*
X123300680Y-38801100D02*
X123300680Y-37401100D01*
X123300680Y-37401100D02*
X120300680Y-37401100D01*
G04 #@! TO.C,Q8*
X119300680Y-58501100D02*
X120700680Y-58501100D01*
X120700680Y-58501100D02*
X120700680Y-55501100D01*
X120700680Y-55501100D02*
X119300680Y-55501100D01*
X119300680Y-55501100D02*
X119300680Y-58501100D01*
D13*
G04 #@! TO.C,SW1*
X147200220Y-45499860D02*
X147200220Y-50102340D01*
X147200220Y-50102340D02*
X144401140Y-50102340D01*
X144401140Y-50102340D02*
X144401140Y-45499860D01*
X144401140Y-45499860D02*
X147200220Y-45499860D01*
D15*
G04 #@! TO.C,Q1*
X121761350Y-31122766D02*
X115360238Y-29994077D01*
X115360238Y-29994077D02*
X114838897Y-32950745D01*
X114838897Y-32950745D02*
X121240010Y-34079434D01*
X121240010Y-34079434D02*
X121761350Y-31122766D01*
G04 #@! TO.C,Q2*
X106615128Y-44518752D02*
X102794606Y-39260255D01*
X102794606Y-39260255D02*
X100365710Y-41024951D01*
X100365710Y-41024951D02*
X104186232Y-46283448D01*
X104186232Y-46283448D02*
X106615128Y-44518752D01*
G04 #@! TO.C,Q3*
X104186232Y-47518752D02*
X100365710Y-52777249D01*
X100365710Y-52777249D02*
X102794606Y-54541945D01*
X102794606Y-54541945D02*
X106615128Y-49283448D01*
X106615128Y-49283448D02*
X104186232Y-47518752D01*
G04 #@! TO.C,Q4*
X121240010Y-59722766D02*
X114838897Y-60851455D01*
X114838897Y-60851455D02*
X115360238Y-63808123D01*
X115360238Y-63808123D02*
X121761350Y-62679434D01*
X121761350Y-62679434D02*
X121240010Y-59722766D01*
D10*
G04 #@! TO.C,U1*
X174900680Y-39401100D02*
X171900680Y-39401100D01*
X171900680Y-39401100D02*
X171900680Y-42401100D01*
X171900680Y-42401100D02*
X174900680Y-42401100D01*
X174900680Y-42401100D02*
X174900680Y-39401100D01*
G04 #@! TO.C,U9*
X174900680Y-51401100D02*
X171900680Y-51401100D01*
X171900680Y-51401100D02*
X171900680Y-54401100D01*
X171900680Y-54401100D02*
X174900680Y-54401100D01*
X174900680Y-54401100D02*
X174900680Y-51401100D01*
G04 #@! TO.C,P7*
X139800680Y-60901100D02*
X139800680Y-32901100D01*
X133800680Y-33001100D02*
X133800680Y-60901100D01*
X123800680Y-60901100D02*
X143800680Y-60901100D01*
X143800680Y-60901100D02*
X143800680Y-55901100D01*
X143800680Y-55901100D02*
X123800680Y-55901100D01*
X123800680Y-55901100D02*
X123800680Y-60901100D01*
X123800680Y-32901100D02*
X123800680Y-37901100D01*
X123800680Y-37901100D02*
X143800680Y-37901100D01*
X143800680Y-37901100D02*
X143800680Y-32901100D01*
X143800680Y-32901100D02*
X123800680Y-32901100D01*
D15*
G04 #@! TO.C,D4*
X114540010Y-57122766D02*
X108138897Y-58251455D01*
X108138897Y-58251455D02*
X108660238Y-61208123D01*
X108660238Y-61208123D02*
X115061350Y-60079434D01*
X115061350Y-60079434D02*
X114540010Y-57122766D01*
G04 #@! TO.C,D3*
X107186232Y-50318752D02*
X103365710Y-55577249D01*
X103365710Y-55577249D02*
X105794606Y-57341945D01*
X105794606Y-57341945D02*
X109615128Y-52083448D01*
X109615128Y-52083448D02*
X107186232Y-50318752D01*
G04 #@! TO.C,D2*
X109615128Y-41718752D02*
X105794606Y-36460255D01*
X105794606Y-36460255D02*
X103365710Y-38224951D01*
X103365710Y-38224951D02*
X107186232Y-43483448D01*
X107186232Y-43483448D02*
X109615128Y-41718752D01*
G04 #@! TO.C,D1*
X115061350Y-33722766D02*
X108660238Y-32594077D01*
X108660238Y-32594077D02*
X108138897Y-35550745D01*
X108138897Y-35550745D02*
X114540010Y-36679434D01*
X114540010Y-36679434D02*
X115061350Y-33722766D01*
D14*
G04 #@! TO.C,P5*
X143400680Y-43901360D02*
X140200280Y-43901360D01*
X140200280Y-43901360D02*
X140200280Y-49900840D01*
X140200280Y-49900840D02*
X143400680Y-49900840D01*
X143400680Y-49900840D02*
X143400680Y-43901360D01*
D10*
G04 #@! TO.C,SW2*
X113800680Y-42601100D02*
X110200680Y-42601100D01*
X110200680Y-42601100D02*
X110200680Y-51201100D01*
X110200680Y-51201100D02*
X113800680Y-51201100D01*
X113800680Y-51201100D02*
X113800680Y-42601100D01*
G04 #@! TO.C,U4*
X127400680Y-43401100D02*
X120400680Y-43401100D01*
X120400680Y-43401100D02*
X120400680Y-50401100D01*
X120400680Y-50401100D02*
X127400680Y-50401100D01*
X127400680Y-50401100D02*
X127400680Y-43401100D01*
D13*
G04 #@! TO.C,D10*
X174390780Y-27119880D02*
X172790580Y-27119880D01*
X172790580Y-27119880D02*
X172790580Y-26322320D01*
X172790580Y-26322320D02*
X174390780Y-26322320D01*
X174390780Y-26322320D02*
X174390780Y-27119880D01*
G04 #@! TO.C,D9*
X109599460Y-47601000D02*
X109599460Y-49201200D01*
X109599460Y-49201200D02*
X108801900Y-49201200D01*
X108801900Y-49201200D02*
X108801900Y-47601000D01*
X108801900Y-47601000D02*
X109599460Y-47601000D01*
G04 #@! TO.C,D8*
X130900580Y-51702320D02*
X132500780Y-51702320D01*
X132500780Y-51702320D02*
X132500780Y-52499880D01*
X132500780Y-52499880D02*
X130900580Y-52499880D01*
X130900580Y-52499880D02*
X130900580Y-51702320D01*
G04 #@! TO.C,D7*
X130900580Y-50502320D02*
X132500780Y-50502320D01*
X132500780Y-50502320D02*
X132500780Y-51299880D01*
X132500780Y-51299880D02*
X130900580Y-51299880D01*
X130900580Y-51299880D02*
X130900580Y-50502320D01*
G04 #@! TO.C,D6*
X130900580Y-49302320D02*
X132500780Y-49302320D01*
X132500780Y-49302320D02*
X132500780Y-50099880D01*
X132500780Y-50099880D02*
X130900580Y-50099880D01*
X130900580Y-50099880D02*
X130900580Y-49302320D01*
G04 #@! TO.C,D5*
X130900580Y-48102320D02*
X132500780Y-48102320D01*
X132500780Y-48102320D02*
X132500780Y-48899880D01*
X132500780Y-48899880D02*
X130900580Y-48899880D01*
X130900580Y-48899880D02*
X130900580Y-48102320D01*
G04 #@! TO.C,C1*
X176399460Y-40101100D02*
X176399460Y-41701300D01*
X176399460Y-41701300D02*
X175601900Y-41701300D01*
X175601900Y-41701300D02*
X175601900Y-40101100D01*
X175601900Y-40101100D02*
X176399460Y-40101100D01*
G04 #@! TO.C,C19*
X175790580Y-26322320D02*
X177390780Y-26322320D01*
X177390780Y-26322320D02*
X177390780Y-27119880D01*
X177390780Y-27119880D02*
X175790580Y-27119880D01*
X175790580Y-27119880D02*
X175790580Y-26322320D01*
G04 #@! TO.C,C18*
X176399460Y-52100900D02*
X176399460Y-53701100D01*
X176399460Y-53701100D02*
X175601900Y-53701100D01*
X175601900Y-53701100D02*
X175601900Y-52100900D01*
X175601900Y-52100900D02*
X176399460Y-52100900D01*
G04 #@! TO.C,C15*
X115900580Y-50202320D02*
X117500780Y-50202320D01*
X117500780Y-50202320D02*
X117500780Y-50999880D01*
X117500780Y-50999880D02*
X115900580Y-50999880D01*
X115900580Y-50999880D02*
X115900580Y-50202320D01*
G04 #@! TO.C,C13*
X121099460Y-51801000D02*
X121099460Y-53401200D01*
X121099460Y-53401200D02*
X120301900Y-53401200D01*
X120301900Y-53401200D02*
X120301900Y-51801000D01*
X120301900Y-51801000D02*
X121099460Y-51801000D01*
G04 #@! TO.C,R13*
X116100580Y-56602320D02*
X117700780Y-56602320D01*
X117700780Y-56602320D02*
X117700780Y-57399880D01*
X117700780Y-57399880D02*
X116100580Y-57399880D01*
X116100580Y-57399880D02*
X116100580Y-56602320D01*
G04 #@! TO.C,C11*
X128301900Y-51301200D02*
X128301900Y-49701000D01*
X128301900Y-49701000D02*
X129099460Y-49701000D01*
X129099460Y-49701000D02*
X129099460Y-51301200D01*
X129099460Y-51301200D02*
X128301900Y-51301200D01*
G04 #@! TO.C,C10*
X109000580Y-56502320D02*
X110600780Y-56502320D01*
X110600780Y-56502320D02*
X110600780Y-57299880D01*
X110600780Y-57299880D02*
X109000580Y-57299880D01*
X109000580Y-57299880D02*
X109000580Y-56502320D01*
G04 #@! TO.C,C9*
X109000580Y-55202320D02*
X110600780Y-55202320D01*
X110600780Y-55202320D02*
X110600780Y-55999880D01*
X110600780Y-55999880D02*
X109000580Y-55999880D01*
X109000580Y-55999880D02*
X109000580Y-55202320D01*
G04 #@! TO.C,C8*
X130001900Y-44101200D02*
X130001900Y-42501000D01*
X130001900Y-42501000D02*
X130799460Y-42501000D01*
X130799460Y-42501000D02*
X130799460Y-44101200D01*
X130799460Y-44101200D02*
X130001900Y-44101200D01*
G04 #@! TO.C,C7*
X108301900Y-38601200D02*
X108301900Y-37001000D01*
X108301900Y-37001000D02*
X109099460Y-37001000D01*
X109099460Y-37001000D02*
X109099460Y-38601200D01*
X109099460Y-38601200D02*
X108301900Y-38601200D01*
G04 #@! TO.C,C6*
X128801900Y-44101200D02*
X128801900Y-42501000D01*
X128801900Y-42501000D02*
X129599460Y-42501000D01*
X129599460Y-42501000D02*
X129599460Y-44101200D01*
X129599460Y-44101200D02*
X128801900Y-44101200D01*
G04 #@! TO.C,C5*
X126200780Y-41399880D02*
X124600580Y-41399880D01*
X124600580Y-41399880D02*
X124600580Y-40602320D01*
X124600580Y-40602320D02*
X126200780Y-40602320D01*
X126200780Y-40602320D02*
X126200780Y-41399880D01*
G04 #@! TO.C,C4*
X121800580Y-40602320D02*
X123400780Y-40602320D01*
X123400780Y-40602320D02*
X123400780Y-41399880D01*
X123400780Y-41399880D02*
X121800580Y-41399880D01*
X121800580Y-41399880D02*
X121800580Y-40602320D01*
G04 #@! TO.C,C2*
X109701900Y-38601200D02*
X109701900Y-37001000D01*
X109701900Y-37001000D02*
X110499460Y-37001000D01*
X110499460Y-37001000D02*
X110499460Y-38601200D01*
X110499460Y-38601200D02*
X109701900Y-38601200D01*
G04 #@! TO.C,C14*
X119100580Y-54202320D02*
X120700780Y-54202320D01*
X120700780Y-54202320D02*
X120700780Y-54999880D01*
X120700780Y-54999880D02*
X119100580Y-54999880D01*
X119100580Y-54999880D02*
X119100580Y-54202320D01*
G04 #@! TO.C,R28*
X171390780Y-29119880D02*
X169790580Y-29119880D01*
X169790580Y-29119880D02*
X169790580Y-28322320D01*
X169790580Y-28322320D02*
X171390780Y-28322320D01*
X171390780Y-28322320D02*
X171390780Y-29119880D01*
G04 #@! TO.C,C12*
X119899460Y-51101000D02*
X119899460Y-52701200D01*
X119899460Y-52701200D02*
X119101900Y-52701200D01*
X119101900Y-52701200D02*
X119101900Y-51101000D01*
X119101900Y-51101000D02*
X119899460Y-51101000D01*
G04 #@! TO.C,R11*
X110501900Y-41501200D02*
X110501900Y-39901000D01*
X110501900Y-39901000D02*
X111299460Y-39901000D01*
X111299460Y-39901000D02*
X111299460Y-41501200D01*
X111299460Y-41501200D02*
X110501900Y-41501200D01*
G04 #@! TO.C,R10*
X114600780Y-41399880D02*
X113000580Y-41399880D01*
X113000580Y-41399880D02*
X113000580Y-40602320D01*
X113000580Y-40602320D02*
X114600780Y-40602320D01*
X114600780Y-40602320D02*
X114600780Y-41399880D01*
G04 #@! TO.C,R9*
X115599460Y-37901000D02*
X115599460Y-39501200D01*
X115599460Y-39501200D02*
X114801900Y-39501200D01*
X114801900Y-39501200D02*
X114801900Y-37901000D01*
X114801900Y-37901000D02*
X115599460Y-37901000D01*
G04 #@! TO.C,R8*
X117600580Y-34102320D02*
X119200780Y-34102320D01*
X119200780Y-34102320D02*
X119200780Y-34899880D01*
X119200780Y-34899880D02*
X117600580Y-34899880D01*
X117600580Y-34899880D02*
X117600580Y-34102320D01*
G04 #@! TO.C,R7*
X119200780Y-37699880D02*
X117600580Y-37699880D01*
X117600580Y-37699880D02*
X117600580Y-36902320D01*
X117600580Y-36902320D02*
X119200780Y-36902320D01*
X119200780Y-36902320D02*
X119200780Y-37699880D01*
G04 #@! TO.C,R6*
X117600580Y-35502320D02*
X119200780Y-35502320D01*
X119200780Y-35502320D02*
X119200780Y-36299880D01*
X119200780Y-36299880D02*
X117600580Y-36299880D01*
X117600580Y-36299880D02*
X117600580Y-35502320D01*
G04 #@! TO.C,R5*
X146400780Y-44399880D02*
X144800580Y-44399880D01*
X144800580Y-44399880D02*
X144800580Y-43602320D01*
X144800580Y-43602320D02*
X146400780Y-43602320D01*
X146400780Y-43602320D02*
X146400780Y-44399880D01*
G04 #@! TO.C,R4*
X122301900Y-58401200D02*
X122301900Y-56801000D01*
X122301900Y-56801000D02*
X123099460Y-56801000D01*
X123099460Y-56801000D02*
X123099460Y-58401200D01*
X123099460Y-58401200D02*
X122301900Y-58401200D01*
G04 #@! TO.C,R3*
X106100580Y-47202320D02*
X107700780Y-47202320D01*
X107700780Y-47202320D02*
X107700780Y-47999880D01*
X107700780Y-47999880D02*
X106100580Y-47999880D01*
X106100580Y-47999880D02*
X106100580Y-47202320D01*
G04 #@! TO.C,R2*
X106100580Y-45802320D02*
X107700780Y-45802320D01*
X107700780Y-45802320D02*
X107700780Y-46599880D01*
X107700780Y-46599880D02*
X106100580Y-46599880D01*
X106100580Y-46599880D02*
X106100580Y-45802320D01*
G04 #@! TO.C,R1*
X121100580Y-35202320D02*
X122700780Y-35202320D01*
X122700780Y-35202320D02*
X122700780Y-35999880D01*
X122700780Y-35999880D02*
X121100580Y-35999880D01*
X121100580Y-35999880D02*
X121100580Y-35202320D01*
G04 #@! TO.C,R14*
X109600580Y-53702320D02*
X111200780Y-53702320D01*
X111200780Y-53702320D02*
X111200780Y-54499880D01*
X111200780Y-54499880D02*
X109600580Y-54499880D01*
X109600580Y-54499880D02*
X109600580Y-53702320D01*
G04 #@! TO.C,R25*
X171390780Y-32119880D02*
X169790580Y-32119880D01*
X169790580Y-32119880D02*
X169790580Y-31322320D01*
X169790580Y-31322320D02*
X171390780Y-31322320D01*
X171390780Y-31322320D02*
X171390780Y-32119880D01*
G04 #@! TO.C,R26*
X169790580Y-26322320D02*
X171390780Y-26322320D01*
X171390780Y-26322320D02*
X171390780Y-27119880D01*
X171390780Y-27119880D02*
X169790580Y-27119880D01*
X169790580Y-27119880D02*
X169790580Y-26322320D01*
G04 #@! TO.C,R24*
X108801900Y-46201200D02*
X108801900Y-44601000D01*
X108801900Y-44601000D02*
X109599460Y-44601000D01*
X109599460Y-44601000D02*
X109599460Y-46201200D01*
X109599460Y-46201200D02*
X108801900Y-46201200D01*
G04 #@! TO.C,R23*
X135300780Y-52499880D02*
X133700580Y-52499880D01*
X133700580Y-52499880D02*
X133700580Y-51702320D01*
X133700580Y-51702320D02*
X135300780Y-51702320D01*
X135300780Y-51702320D02*
X135300780Y-52499880D01*
G04 #@! TO.C,R22*
X135300780Y-51299880D02*
X133700580Y-51299880D01*
X133700580Y-51299880D02*
X133700580Y-50502320D01*
X133700580Y-50502320D02*
X135300780Y-50502320D01*
X135300780Y-50502320D02*
X135300780Y-51299880D01*
G04 #@! TO.C,R21*
X135300780Y-50099880D02*
X133700580Y-50099880D01*
X133700580Y-50099880D02*
X133700580Y-49302320D01*
X133700580Y-49302320D02*
X135300780Y-49302320D01*
X135300780Y-49302320D02*
X135300780Y-50099880D01*
G04 #@! TO.C,R20*
X135300780Y-48899880D02*
X133700580Y-48899880D01*
X133700580Y-48899880D02*
X133700580Y-48102320D01*
X133700580Y-48102320D02*
X135300780Y-48102320D01*
X135300780Y-48102320D02*
X135300780Y-48899880D01*
G04 #@! TO.C,R19*
X118101900Y-43201200D02*
X118101900Y-41601000D01*
X118101900Y-41601000D02*
X118899460Y-41601000D01*
X118899460Y-41601000D02*
X118899460Y-43201200D01*
X118899460Y-43201200D02*
X118101900Y-43201200D01*
G04 #@! TO.C,R18*
X115301900Y-43201200D02*
X115301900Y-41601000D01*
X115301900Y-41601000D02*
X116099460Y-41601000D01*
X116099460Y-41601000D02*
X116099460Y-43201200D01*
X116099460Y-43201200D02*
X115301900Y-43201200D01*
G04 #@! TO.C,R17*
X116500580Y-58302320D02*
X118100780Y-58302320D01*
X118100780Y-58302320D02*
X118100780Y-59099880D01*
X118100780Y-59099880D02*
X116500580Y-59099880D01*
X116500580Y-59099880D02*
X116500580Y-58302320D01*
G04 #@! TO.C,R15*
X122999460Y-53301000D02*
X122999460Y-54901200D01*
X122999460Y-54901200D02*
X122201900Y-54901200D01*
X122201900Y-54901200D02*
X122201900Y-53301000D01*
X122201900Y-53301000D02*
X122999460Y-53301000D01*
G04 #@! TO.C,R16*
X123601900Y-54901200D02*
X123601900Y-53301000D01*
X123601900Y-53301000D02*
X124399460Y-53301000D01*
X124399460Y-53301000D02*
X124399460Y-54901200D01*
X124399460Y-54901200D02*
X123601900Y-54901200D01*
G04 #@! TO.C,R27*
X169790580Y-29822320D02*
X171390780Y-29822320D01*
X171390780Y-29822320D02*
X171390780Y-30619880D01*
X171390780Y-30619880D02*
X169790580Y-30619880D01*
X169790580Y-30619880D02*
X169790580Y-29822320D01*
G04 #@! TO.C,C3*
X130460480Y-46131000D02*
X133660880Y-46131000D01*
X133660880Y-46131000D02*
X133660880Y-47731200D01*
X133660880Y-47731200D02*
X130460480Y-47731200D01*
X130460480Y-47731200D02*
X130460480Y-46131000D01*
D10*
G04 #@! TO.C,U11*
X117800680Y-52901100D02*
X114800680Y-52901100D01*
X114800680Y-52901100D02*
X114800680Y-54701100D01*
X114800680Y-54701100D02*
X117800680Y-54701100D01*
X117800680Y-54701100D02*
X117800680Y-52901100D01*
G04 #@! TD*
D16*
G04 #@! TO.C,P6*
X117823920Y-47650400D02*
G75*
G03X117823920Y-47650400I-523240J0D01*
G01*
X117823920Y-46151800D02*
G75*
G03X117823920Y-46151800I-523240J0D01*
G01*
G04 #@! TD*
G04 #@! TO.C,P9*
X170245050Y-24911100D02*
G75*
G03X170245050Y-24911100I-674370J0D01*
G01*
X172785050Y-24911100D02*
G75*
G03X172785050Y-24911100I-674370J0D01*
G01*
X175325050Y-24911100D02*
G75*
G03X175325050Y-24911100I-674370J0D01*
G01*
X177865050Y-24911100D02*
G75*
G03X177865050Y-24911100I-674370J0D01*
G01*
G04 #@! TD*
G04 #@! TO.C,P8*
X170325050Y-33721100D02*
G75*
G03X170325050Y-33721100I-674370J0D01*
G01*
X172865050Y-33721100D02*
G75*
G03X172865050Y-33721100I-674370J0D01*
G01*
X175405050Y-33721100D02*
G75*
G03X175405050Y-33721100I-674370J0D01*
G01*
X177945050Y-33721100D02*
G75*
G03X177945050Y-33721100I-674370J0D01*
G01*
G04 #@! TD*
G04 #@! TO.C,Q1*
X121803387Y-33851806D02*
G75*
G03X121803387Y-33851806I-523240J0D01*
G01*
X122244453Y-31350394D02*
G75*
G03X122244453Y-31350394I-523240J0D01*
G01*
G04 #@! TD*
G04 #@! TO.C,Q2*
X104896468Y-46147587D02*
G75*
G03X104896468Y-46147587I-523240J0D01*
G01*
X106951372Y-44654613D02*
G75*
G03X106951372Y-44654613I-523240J0D01*
G01*
G04 #@! TD*
G04 #@! TO.C,Q3*
X106951372Y-49147587D02*
G75*
G03X106951372Y-49147587I-523240J0D01*
G01*
X104896468Y-47654613D02*
G75*
G03X104896468Y-47654613I-523240J0D01*
G01*
G04 #@! TD*
G04 #@! TO.C,Q4*
X122244453Y-62451806D02*
G75*
G03X122244453Y-62451806I-523240J0D01*
G01*
X121803387Y-59950394D02*
G75*
G03X121803387Y-59950394I-523240J0D01*
G01*
G04 #@! TD*
G04 #@! TO.C,P7*
X126924480Y-35401100D02*
G75*
G03X126924480Y-35401100I-1123800J0D01*
G01*
X126924480Y-58401100D02*
G75*
G03X126924480Y-58401100I-1123800J0D01*
G01*
X142924480Y-35401100D02*
G75*
G03X142924480Y-35401100I-1123800J0D01*
G01*
X142924480Y-58401100D02*
G75*
G03X142924480Y-58401100I-1123800J0D01*
G01*
G04 #@! TD*
G04 #@! TO.C,D4*
X115544453Y-59851806D02*
G75*
G03X115544453Y-59851806I-523240J0D01*
G01*
X115103387Y-57350394D02*
G75*
G03X115103387Y-57350394I-523240J0D01*
G01*
G04 #@! TD*
G04 #@! TO.C,D3*
X109951372Y-51947587D02*
G75*
G03X109951372Y-51947587I-523240J0D01*
G01*
X107896468Y-50454613D02*
G75*
G03X107896468Y-50454613I-523240J0D01*
G01*
G04 #@! TD*
G04 #@! TO.C,D2*
X107896468Y-43347587D02*
G75*
G03X107896468Y-43347587I-523240J0D01*
G01*
X109951372Y-41854613D02*
G75*
G03X109951372Y-41854613I-523240J0D01*
G01*
G04 #@! TD*
G04 #@! TO.C,D1*
X115103387Y-36451806D02*
G75*
G03X115103387Y-36451806I-523240J0D01*
G01*
X115544453Y-33950394D02*
G75*
G03X115544453Y-33950394I-523240J0D01*
G01*
G04 #@! TD*
G04 #@! TO.C,SW2*
X112524480Y-44361100D02*
G75*
G03X112524480Y-44361100I-523800J0D01*
G01*
X112524480Y-46901100D02*
G75*
G03X112524480Y-46901100I-523800J0D01*
G01*
X112524480Y-49441100D02*
G75*
G03X112524480Y-49441100I-523800J0D01*
G01*
G04 #@! TD*
G04 #@! TO.C,P4*
X145724860Y-54301100D02*
G75*
G03X145724860Y-54301100I-424180J0D01*
G01*
G04 #@! TD*
G04 #@! TO.C,P3*
X145724860Y-52601100D02*
G75*
G03X145724860Y-52601100I-424180J0D01*
G01*
G04 #@! TD*
G04 #@! TO.C,P2*
X145724860Y-39501100D02*
G75*
G03X145724860Y-39501100I-424180J0D01*
G01*
G04 #@! TD*
G04 #@! TO.C,P1*
X145724860Y-41201100D02*
G75*
G03X145724860Y-41201100I-424180J0D01*
G01*
G04 #@! TD*
M02*
