G04 #@! TF.GenerationSoftware,KiCad,Pcbnew,(5.0.1)-3*
G04 #@! TF.CreationDate,2018-10-30T21:40:18+09:00*
G04 #@! TF.ProjectId,Zirconia,5A6972636F6E69612E6B696361645F70,rev?*
G04 #@! TF.SameCoordinates,Original*
G04 #@! TF.FileFunction,Copper,L2,Bot,Signal*
G04 #@! TF.FilePolarity,Positive*
%FSLAX46Y46*%
G04 Gerber Fmt 4.6, Leading zero omitted, Abs format (unit mm)*
G04 Created by KiCad (PCBNEW (5.0.1)-3) date 2018/10/30 21:40:18*
%MOMM*%
%LPD*%
G01*
G04 APERTURE LIST*
G04 #@! TA.AperFunction,ComponentPad*
%ADD10C,1.198880*%
G04 #@! TD*
G04 #@! TA.AperFunction,ComponentPad*
%ADD11C,1.501140*%
G04 #@! TD*
G04 #@! TA.AperFunction,SMDPad,CuDef*
%ADD12R,0.800100X2.000000*%
G04 #@! TD*
G04 #@! TA.AperFunction,SMDPad,CuDef*
%ADD13R,0.200660X0.700000*%
G04 #@! TD*
G04 #@! TA.AperFunction,SMDPad,CuDef*
%ADD14R,0.200660X0.800100*%
G04 #@! TD*
G04 #@! TA.AperFunction,SMDPad,CuDef*
%ADD15R,0.700000X0.200660*%
G04 #@! TD*
G04 #@! TA.AperFunction,SMDPad,CuDef*
%ADD16R,0.800100X0.200660*%
G04 #@! TD*
G04 #@! TA.AperFunction,SMDPad,CuDef*
%ADD17R,1.000000X1.000000*%
G04 #@! TD*
G04 #@! TA.AperFunction,ComponentPad*
%ADD18C,2.400000*%
G04 #@! TD*
G04 #@! TA.AperFunction,ComponentPad*
%ADD19C,1.200000*%
G04 #@! TD*
G04 #@! TA.AperFunction,SMDPad,CuDef*
%ADD20R,0.800100X0.800100*%
G04 #@! TD*
G04 #@! TA.AperFunction,ComponentPad*
%ADD21C,1.000760*%
G04 #@! TD*
G04 #@! TA.AperFunction,ViaPad*
%ADD22C,0.609600*%
G04 #@! TD*
G04 #@! TA.AperFunction,Conductor*
%ADD23C,0.152400*%
G04 #@! TD*
G04 #@! TA.AperFunction,Conductor*
%ADD24C,0.250000*%
G04 #@! TD*
G04 #@! TA.AperFunction,Conductor*
%ADD25C,0.500000*%
G04 #@! TD*
G04 APERTURE END LIST*
D10*
G04 #@! TO.P,P6,1*
G04 #@! TO.N,Net-(P5-Pad1)*
X117300680Y-47650400D03*
G04 #@! TO.P,P6,2*
G04 #@! TO.N,GND*
X117300680Y-46151800D03*
G04 #@! TD*
D11*
G04 #@! TO.P,P9,1*
G04 #@! TO.N,Net-(C19-Pad1)*
X169570680Y-24911100D03*
G04 #@! TO.P,P9,2*
G04 #@! TO.N,Net-(C19-Pad2)*
X172110680Y-24911100D03*
G04 #@! TO.P,P9,3*
G04 #@! TO.N,Net-(P8-Pad3)*
X174650680Y-24911100D03*
G04 #@! TO.P,P9,4*
G04 #@! TO.N,Net-(P8-Pad4)*
X177190680Y-24911100D03*
G04 #@! TD*
G04 #@! TO.P,P8,1*
G04 #@! TO.N,Net-(P8-Pad1)*
X169650680Y-33721100D03*
G04 #@! TO.P,P8,2*
G04 #@! TO.N,Net-(C19-Pad2)*
X172190680Y-33721100D03*
G04 #@! TO.P,P8,3*
G04 #@! TO.N,Net-(P8-Pad3)*
X174730680Y-33721100D03*
G04 #@! TO.P,P8,4*
G04 #@! TO.N,Net-(P8-Pad4)*
X177270680Y-33721100D03*
G04 #@! TD*
D12*
G04 #@! TO.P,U10,3*
G04 #@! TO.N,Net-(U10-Pad3)*
X177000680Y-51401100D03*
G04 #@! TO.P,U10,4*
G04 #@! TO.N,Net-(U10-Pad4)*
X177000680Y-54401100D03*
G04 #@! TD*
G04 #@! TO.P,U2,3*
G04 #@! TO.N,Net-(U1-Pad6)*
X177000680Y-39402240D03*
G04 #@! TO.P,U2,4*
G04 #@! TO.N,Net-(U1-Pad2)*
X177000680Y-42402240D03*
G04 #@! TD*
D10*
G04 #@! TO.P,Q1,1*
G04 #@! TO.N,Net-(Q1-Pad1)*
X121280147Y-33851806D03*
G04 #@! TO.P,Q1,3*
G04 #@! TO.N,VCC*
X121721213Y-31350394D03*
G04 #@! TD*
G04 #@! TO.P,Q2,1*
G04 #@! TO.N,Net-(Q2-Pad1)*
X104373228Y-46147587D03*
G04 #@! TO.P,Q2,3*
G04 #@! TO.N,VCC*
X106428132Y-44654613D03*
G04 #@! TD*
G04 #@! TO.P,Q3,1*
G04 #@! TO.N,Net-(Q3-Pad1)*
X106428132Y-49147587D03*
G04 #@! TO.P,Q3,3*
G04 #@! TO.N,VCC*
X104373228Y-47654613D03*
G04 #@! TD*
G04 #@! TO.P,Q4,1*
G04 #@! TO.N,Net-(Q4-Pad1)*
X121721213Y-62451806D03*
G04 #@! TO.P,Q4,3*
G04 #@! TO.N,VCC*
X121280147Y-59950394D03*
G04 #@! TD*
D13*
G04 #@! TO.P,U8,1*
G04 #@! TO.N,Net-(U8-Pad1)*
X128899920Y-45251100D03*
D14*
G04 #@! TO.P,U8,2*
G04 #@! TO.N,Net-(U8-Pad2)*
X129301240Y-45300900D03*
G04 #@! TO.P,U8,3*
G04 #@! TO.N,Net-(U8-Pad3)*
X129700020Y-45300900D03*
G04 #@! TO.P,U8,4*
G04 #@! TO.N,Net-(U8-Pad4)*
X130101340Y-45300900D03*
G04 #@! TO.P,U8,5*
G04 #@! TO.N,Net-(U8-Pad5)*
X130500120Y-45300900D03*
G04 #@! TO.P,U8,6*
G04 #@! TO.N,Net-(U8-Pad6)*
X130901440Y-45300900D03*
D15*
G04 #@! TO.P,U8,7*
G04 #@! TO.N,Net-(U8-Pad7)*
X131550680Y-45900340D03*
D16*
G04 #@! TO.P,U8,8*
G04 #@! TO.N,VCC*
X131500880Y-46301660D03*
G04 #@! TO.P,U8,9*
G04 #@! TO.N,Net-(U4-Pad27)*
X131500880Y-46700440D03*
G04 #@! TO.P,U8,10*
G04 #@! TO.N,Net-(C17-Pad1)*
X131500880Y-47101760D03*
G04 #@! TO.P,U8,11*
G04 #@! TO.N,GND*
X131500880Y-47500540D03*
D15*
G04 #@! TO.P,U8,12*
G04 #@! TO.N,Net-(U8-Pad12)*
X131550680Y-47901860D03*
D14*
G04 #@! TO.P,U8,13*
G04 #@! TO.N,VCC*
X130901440Y-48501300D03*
G04 #@! TO.P,U8,14*
G04 #@! TO.N,Net-(U8-Pad14)*
X130500120Y-48501300D03*
G04 #@! TO.P,U8,15*
G04 #@! TO.N,Net-(U8-Pad15)*
X130101340Y-48501300D03*
G04 #@! TO.P,U8,16*
G04 #@! TO.N,Net-(U8-Pad16)*
X129700020Y-48501300D03*
G04 #@! TO.P,U8,17*
G04 #@! TO.N,Net-(U8-Pad17)*
X129301240Y-48501300D03*
G04 #@! TO.P,U8,18*
G04 #@! TO.N,GND*
X128899920Y-48501300D03*
D15*
G04 #@! TO.P,U8,19*
G04 #@! TO.N,Net-(U8-Pad19)*
X128250680Y-47901860D03*
D16*
G04 #@! TO.P,U8,20*
G04 #@! TO.N,GND*
X128300480Y-47500540D03*
G04 #@! TO.P,U8,21*
G04 #@! TO.N,Net-(U8-Pad21)*
X128300480Y-47101760D03*
G04 #@! TO.P,U8,22*
G04 #@! TO.N,Net-(U4-Pad25)*
X128300480Y-46700440D03*
G04 #@! TO.P,U8,23*
G04 #@! TO.N,Net-(U4-Pad26)*
X128300480Y-46301660D03*
G04 #@! TO.P,U8,24*
G04 #@! TO.N,Net-(U4-Pad28)*
X128300480Y-45900340D03*
D17*
G04 #@! TO.P,U8,99*
G04 #@! TO.N,N/C*
X129900680Y-46901100D03*
G04 #@! TD*
D18*
G04 #@! TO.P,P7,1*
G04 #@! TO.N,Net-(P7-Pad1)*
X125800680Y-35401100D03*
G04 #@! TO.P,P7,4*
G04 #@! TO.N,N/C*
X125800680Y-58401100D03*
G04 #@! TO.P,P7,2*
G04 #@! TO.N,Net-(P7-Pad2)*
X141800680Y-35401100D03*
G04 #@! TO.P,P7,3*
G04 #@! TO.N,N/C*
X141800680Y-58401100D03*
G04 #@! TD*
D10*
G04 #@! TO.P,D4,1*
G04 #@! TO.N,VCC*
X115021213Y-59851806D03*
G04 #@! TO.P,D4,2*
G04 #@! TO.N,Net-(D4-Pad2)*
X114580147Y-57350394D03*
G04 #@! TD*
G04 #@! TO.P,D3,1*
G04 #@! TO.N,VCC*
X109428132Y-51947587D03*
G04 #@! TO.P,D3,2*
G04 #@! TO.N,Net-(D3-Pad2)*
X107373228Y-50454613D03*
G04 #@! TD*
G04 #@! TO.P,D2,1*
G04 #@! TO.N,VCC*
X107373228Y-43347587D03*
G04 #@! TO.P,D2,2*
G04 #@! TO.N,Net-(D2-Pad2)*
X109428132Y-41854613D03*
G04 #@! TD*
G04 #@! TO.P,D1,1*
G04 #@! TO.N,VCC*
X114580147Y-36451806D03*
G04 #@! TO.P,D1,2*
G04 #@! TO.N,Net-(D1-Pad2)*
X115021213Y-33950394D03*
G04 #@! TD*
D19*
G04 #@! TO.P,SW2,1*
G04 #@! TO.N,Net-(P5-Pad1)*
X112000680Y-44361100D03*
G04 #@! TO.P,SW2,2*
G04 #@! TO.N,+BATT*
X112000680Y-46901100D03*
G04 #@! TO.P,SW2,3*
G04 #@! TO.N,N/C*
X112000680Y-49441100D03*
G04 #@! TD*
D20*
G04 #@! TO.P,C16,2*
G04 #@! TO.N,GND*
X129300580Y-50401100D03*
G04 #@! TO.P,C16,1*
G04 #@! TO.N,VCC*
X130900780Y-50401100D03*
G04 #@! TD*
G04 #@! TO.P,C17,2*
G04 #@! TO.N,GND*
X129300580Y-43401100D03*
G04 #@! TO.P,C17,1*
G04 #@! TO.N,Net-(C17-Pad1)*
X130900780Y-43401100D03*
G04 #@! TD*
D21*
G04 #@! TO.P,P4,1*
G04 #@! TO.N,Net-(P4-Pad1)*
X145300680Y-54301100D03*
G04 #@! TD*
G04 #@! TO.P,P3,1*
G04 #@! TO.N,Net-(L2-Pad1)*
X145300680Y-52601100D03*
G04 #@! TD*
G04 #@! TO.P,P2,1*
G04 #@! TO.N,Net-(P2-Pad1)*
X145300680Y-39501100D03*
G04 #@! TD*
G04 #@! TO.P,P1,1*
G04 #@! TO.N,Net-(L1-Pad1)*
X145300680Y-41201100D03*
G04 #@! TD*
D22*
G04 #@! TO.N,GND*
X128700680Y-49701000D03*
X123740680Y-53261100D03*
X126410680Y-51321100D03*
X139999620Y-46400720D03*
X133660680Y-46931100D03*
X128640680Y-43261100D03*
G04 #@! TO.N,VCC*
X146360680Y-42101100D03*
X137650680Y-37741100D03*
X135680680Y-37741100D03*
X134240680Y-53411100D03*
X108700680Y-38601200D03*
X122400680Y-41001100D03*
X133170680Y-44541100D03*
X127760680Y-43331100D03*
X128700680Y-51301200D03*
X119100580Y-54601100D03*
X128399540Y-38700060D03*
G04 #@! TO.N,+BATT*
X106570680Y-41231100D03*
X135500680Y-44581100D03*
X133330680Y-45401100D03*
G04 #@! TO.N,Net-(P5-Pad1)*
X141270680Y-45841100D03*
G04 #@! TO.N,Net-(P5-Pad3)*
X124630680Y-51961100D03*
X139060680Y-47601100D03*
G04 #@! TO.N,Net-(P5-Pad4)*
X123860680Y-51961100D03*
X139290680Y-49311100D03*
G04 #@! TO.N,Net-(Q2-Pad1)*
X120430680Y-41681100D03*
G04 #@! TO.N,Net-(Q3-Pad1)*
X120200680Y-42411100D03*
G04 #@! TO.N,Net-(Q4-Pad1)*
X119090680Y-44441100D03*
G04 #@! TO.N,Net-(R5-Pad1)*
X145930680Y-42991100D03*
X137680680Y-39681100D03*
X135790680Y-39681100D03*
X123270680Y-45501100D03*
X126390680Y-45011100D03*
G04 #@! TO.N,Net-(Q5-PadG)*
X119510680Y-37301100D03*
X120790680Y-38501100D03*
G04 #@! TO.N,Net-(R6-Pad1)*
X116800680Y-36071100D03*
X122110680Y-44271100D03*
G04 #@! TO.N,Net-(Q5-PadD)*
X119200780Y-34501100D03*
X121730680Y-36461100D03*
G04 #@! TO.N,Net-(R9-Pad1)*
X121900680Y-45011100D03*
X115710680Y-37901100D03*
G04 #@! TO.N,Net-(R12-Pad1)*
X121260680Y-45431100D03*
X112100580Y-55701100D03*
G04 #@! TO.N,Net-(R15-Pad1)*
X122510680Y-52411100D03*
X119520680Y-46831100D03*
G04 #@! TO.N,Net-(R18-Pad2)*
X114870680Y-41971100D03*
X120230580Y-43201200D03*
X121330680Y-46191100D03*
G04 #@! TO.N,Net-(U4-Pad25)*
X122930680Y-47941100D03*
G04 #@! TO.N,Net-(U4-Pad26)*
X122460680Y-48591100D03*
G04 #@! TO.N,Net-(U4-Pad27)*
X123430680Y-48721100D03*
G04 #@! TO.N,Net-(U4-Pad28)*
X123200680Y-49451100D03*
G04 #@! TO.N,Net-(U4-Pad38)*
X126700680Y-49151100D03*
X130310680Y-53311100D03*
G04 #@! TO.N,Net-(U4-Pad39)*
X125950680Y-48661100D03*
X127970680Y-53381100D03*
G04 #@! TO.N,Net-(U4-Pad40)*
X125570680Y-47561100D03*
X128350680Y-40821100D03*
G04 #@! TO.N,Net-(U4-Pad41)*
X126310680Y-47351100D03*
X131260680Y-40731100D03*
G04 #@! TO.N,Net-(U1-Pad2)*
X173430680Y-40941100D03*
G04 #@! TO.N,Net-(U1-Pad6)*
X172820680Y-40191100D03*
G04 #@! TO.N,Net-(R26-Pad1)*
X169590680Y-27721100D03*
X172650680Y-30981100D03*
G04 #@! TO.N,Net-(C19-Pad1)*
X173600680Y-27501100D03*
G04 #@! TO.N,Net-(P8-Pad1)*
X173500680Y-30301100D03*
G04 #@! TO.N,Net-(U10-Pad3)*
X172810680Y-52201100D03*
G04 #@! TO.N,Net-(U10-Pad4)*
X173450680Y-52881100D03*
G04 #@! TO.N,Net-(C19-Pad2)*
X178000680Y-26701100D03*
G04 #@! TD*
D23*
G04 #@! TO.N,GND*
X128300480Y-47500540D02*
X126931240Y-47500540D01*
X125690680Y-51131100D02*
X126220680Y-51131100D01*
X124675086Y-50115506D02*
X125690680Y-51131100D01*
X124675086Y-48511100D02*
X124675086Y-50115506D01*
X125085086Y-48101100D02*
X124675086Y-48511100D01*
X126330680Y-48101100D02*
X125085086Y-48101100D01*
X126931240Y-47500540D02*
X126330680Y-48101100D01*
X126220680Y-51131100D02*
X126410680Y-51321100D01*
X129300580Y-50401100D02*
X129300580Y-50300900D01*
X129300580Y-50300900D02*
X128700680Y-49701000D01*
X128700680Y-49701000D02*
X129300580Y-50300900D01*
X126220680Y-51131100D02*
X123430680Y-51131100D01*
X123430680Y-51131100D02*
X123240680Y-51321100D01*
X123240680Y-51321100D02*
X123240680Y-52761100D01*
X123240680Y-52761100D02*
X123740680Y-53261100D01*
X126410680Y-51321100D02*
X126220680Y-51131100D01*
X133091240Y-47500540D02*
X133660680Y-46931100D01*
X131500880Y-47500540D02*
X133091240Y-47500540D01*
X129300580Y-43401100D02*
X128780680Y-43401100D01*
X139469240Y-46931100D02*
X133660680Y-46931100D01*
X139469240Y-46931100D02*
X139999620Y-46400720D01*
X128780680Y-43401100D02*
X128640680Y-43261100D01*
X128300480Y-47500540D02*
X128820120Y-47500540D01*
X128899920Y-47580340D02*
X128899920Y-48501300D01*
X128820120Y-47500540D02*
X128899920Y-47580340D01*
X128899920Y-48501300D02*
X128899920Y-49501760D01*
X129300580Y-43401100D02*
X129330680Y-43401100D01*
X128899920Y-49501760D02*
X128700680Y-49701000D01*
D24*
G04 #@! TO.N,VCC*
X121280147Y-59950394D02*
X115119801Y-59950394D01*
X115119801Y-59950394D02*
X115021213Y-59851806D01*
D23*
X128399540Y-38900060D02*
X128399540Y-38812240D01*
X146360680Y-38561100D02*
X146360680Y-42101100D01*
X145540680Y-37741100D02*
X146360680Y-38561100D01*
X144330680Y-37741100D02*
X145540680Y-37741100D01*
X140740680Y-37741100D02*
X144330680Y-37741100D01*
X137650680Y-37741100D02*
X140740680Y-37741100D01*
X129470680Y-37741100D02*
X135680680Y-37741100D01*
X134240680Y-53411100D02*
X131230680Y-50401100D01*
X131230680Y-50401100D02*
X130900780Y-50401100D01*
D24*
X107373228Y-43347587D02*
X107373228Y-39928652D01*
X107373228Y-39928652D02*
X108700680Y-38601200D01*
X107373228Y-43347587D02*
X107373228Y-37038552D01*
X112469441Y-34341100D02*
X114580147Y-36451806D01*
X110070680Y-34341100D02*
X112469441Y-34341100D01*
X107373228Y-37038552D02*
X110070680Y-34341100D01*
X109428132Y-51947587D02*
X106757167Y-51947587D01*
X104373228Y-49563648D02*
X104373228Y-47654613D01*
X106757167Y-51947587D02*
X104373228Y-49563648D01*
D23*
X133170680Y-44541100D02*
X131350680Y-42721100D01*
X131350680Y-42721100D02*
X128590680Y-42721100D01*
X128590680Y-42721100D02*
X128210680Y-42721100D01*
X128210680Y-42721100D02*
X127760680Y-43171100D01*
X127760680Y-43171100D02*
X127760680Y-43331100D01*
X131500880Y-46301660D02*
X130950120Y-46301660D01*
X130901440Y-48041860D02*
X130901440Y-48501300D01*
X130700680Y-47841100D02*
X130901440Y-48041860D01*
X130700680Y-46551100D02*
X130700680Y-47841100D01*
X130950120Y-46301660D02*
X130700680Y-46551100D01*
X130901440Y-48501300D02*
X130901440Y-50400440D01*
X130901440Y-50400440D02*
X130900780Y-50401100D01*
X130900780Y-50911000D02*
X130900780Y-50401100D01*
X130080680Y-51731100D02*
X130900780Y-50911000D01*
X129130580Y-51731100D02*
X130080680Y-51731100D01*
X128700680Y-51301200D02*
X129130580Y-51731100D01*
D24*
X119100580Y-55251150D02*
X119100580Y-54601100D01*
X119450530Y-55601100D02*
X119100580Y-55251150D01*
X120200680Y-55601100D02*
X119450530Y-55601100D01*
X121280147Y-56680567D02*
X120200680Y-55601100D01*
X121280147Y-59950394D02*
X121280147Y-56680567D01*
D23*
X128399540Y-39252510D02*
X128399540Y-38700060D01*
X126650950Y-41001100D02*
X128399540Y-39252510D01*
X122400680Y-41001100D02*
X126650950Y-41001100D01*
X128806050Y-37741100D02*
X129470680Y-37741100D01*
X128399540Y-38147610D02*
X128806050Y-37741100D01*
X128399540Y-38700060D02*
X128399540Y-38147610D01*
D25*
G04 #@! TO.N,+BATT*
X116330680Y-35021100D02*
X113895301Y-35021100D01*
X106570680Y-37095240D02*
X106570680Y-41231100D01*
X109852222Y-33813698D02*
X106570680Y-37095240D01*
X112687899Y-33813698D02*
X109852222Y-33813698D01*
X113895301Y-35021100D02*
X112687899Y-33813698D01*
X136750680Y-40601100D02*
X136750680Y-37231100D01*
X136750680Y-40601100D02*
X136750680Y-41951100D01*
X136750680Y-41981100D02*
X136750680Y-41951100D01*
X118580680Y-35021100D02*
X116330680Y-35021100D01*
X116330680Y-35021100D02*
X116310680Y-35021100D01*
X121050680Y-37491100D02*
X118580680Y-35021100D01*
X127140680Y-37491100D02*
X121050680Y-37491100D01*
X128020680Y-36611100D02*
X127140680Y-37491100D01*
X136130680Y-36611100D02*
X128020680Y-36611100D01*
X136750680Y-37231100D02*
X136130680Y-36611100D01*
X136750680Y-41981100D02*
X136750680Y-41471100D01*
X136750680Y-41471100D02*
X136750680Y-40571100D01*
X134710680Y-44021100D02*
X136750680Y-41981100D01*
D24*
X134940680Y-44021100D02*
X134710680Y-44021100D01*
X135500680Y-44581100D02*
X134940680Y-44021100D01*
D25*
X133330680Y-45401100D02*
X134710680Y-44021100D01*
X112000680Y-46901100D02*
X112000680Y-46501100D01*
D23*
G04 #@! TO.N,Net-(C17-Pad1)*
X131500880Y-47101760D02*
X132230020Y-47101760D01*
X132770680Y-44931100D02*
X131240680Y-43401100D01*
X132770680Y-46561100D02*
X132770680Y-44931100D01*
X132230020Y-47101760D02*
X132770680Y-46561100D01*
X131240680Y-43401100D02*
X130900780Y-43401100D01*
G04 #@! TO.N,Net-(P5-Pad1)*
X118499980Y-47650400D02*
X117300680Y-47650400D01*
X120386670Y-49537090D02*
X118499980Y-47650400D01*
X120386670Y-51137090D02*
X120386670Y-49537090D01*
X123850284Y-54600704D02*
X120386670Y-51137090D01*
X135031076Y-54600704D02*
X123850284Y-54600704D01*
X141730680Y-47901100D02*
X135031076Y-54600704D01*
X141730680Y-46301100D02*
X141730680Y-47901100D01*
X141270680Y-45841100D02*
X141730680Y-46301100D01*
G04 #@! TO.N,Net-(P5-Pad3)*
X138740680Y-47921100D02*
X139060680Y-47601100D01*
X138740680Y-50028988D02*
X138740680Y-47921100D01*
X134778568Y-53991100D02*
X138740680Y-50028988D01*
X126660680Y-53991100D02*
X134778568Y-53991100D01*
X124630680Y-51961100D02*
X126660680Y-53991100D01*
G04 #@! TO.N,Net-(P5-Pad4)*
X139290680Y-49910044D02*
X139290680Y-49311100D01*
X134904822Y-54295902D02*
X139290680Y-49910044D01*
X126195482Y-54295902D02*
X134904822Y-54295902D01*
X123860680Y-51961100D02*
X126195482Y-54295902D01*
G04 #@! TO.N,Net-(Q2-Pad1)*
X107104193Y-46147587D02*
X104373228Y-46147587D01*
X114445878Y-38805902D02*
X107104193Y-46147587D01*
X117555482Y-38805902D02*
X114445878Y-38805902D01*
X120430680Y-41681100D02*
X117555482Y-38805902D01*
G04 #@! TO.N,Net-(Q3-Pad1)*
X106428132Y-47254704D02*
X106428132Y-49147587D01*
X114572132Y-39110704D02*
X106428132Y-47254704D01*
X117429228Y-39110704D02*
X114572132Y-39110704D01*
X119500152Y-41181628D02*
X117429228Y-39110704D01*
X119500152Y-41710572D02*
X119500152Y-41181628D01*
X120200680Y-42411100D02*
X119500152Y-41710572D01*
G04 #@! TO.N,Net-(Q4-Pad1)*
X122330680Y-61842339D02*
X121721213Y-62451806D01*
X122330680Y-55661100D02*
X122330680Y-61842339D01*
X115050680Y-48381100D02*
X122330680Y-55661100D01*
X115050680Y-45341100D02*
X115050680Y-48381100D01*
X115950680Y-44441100D02*
X115050680Y-45341100D01*
X119090680Y-44441100D02*
X115950680Y-44441100D01*
G04 #@! TO.N,Net-(R5-Pad1)*
X126390680Y-45011100D02*
X126390680Y-43811100D01*
X145530680Y-42591100D02*
X145930680Y-42991100D01*
X140590680Y-42591100D02*
X145530680Y-42591100D01*
X137680680Y-39681100D02*
X140590680Y-42591100D01*
X134500680Y-39681100D02*
X135790680Y-39681100D01*
X131880680Y-42301100D02*
X134500680Y-39681100D01*
X127900680Y-42301100D02*
X131880680Y-42301100D01*
X126390680Y-43811100D02*
X127900680Y-42301100D01*
X123760680Y-45011100D02*
X126390680Y-45011100D01*
X123270680Y-45501100D02*
X123760680Y-45011100D01*
G04 #@! TO.N,Net-(Q5-PadG)*
X119590680Y-37301100D02*
X119510680Y-37301100D01*
X120790680Y-38501100D02*
X119590680Y-37301100D01*
G04 #@! TO.N,Net-(R6-Pad1)*
X116800680Y-36161100D02*
X116800680Y-36071100D01*
X122720680Y-42081100D02*
X116800680Y-36161100D01*
X122720680Y-43661100D02*
X122720680Y-42081100D01*
X122110680Y-44271100D02*
X122720680Y-43661100D01*
G04 #@! TO.N,Net-(Q5-PadD)*
X121160780Y-36461100D02*
X121730680Y-36461100D01*
X121160780Y-36461100D02*
X119200780Y-34501100D01*
G04 #@! TO.N,Net-(R9-Pad1)*
X121900680Y-45011100D02*
X121570680Y-44681100D01*
X121570680Y-44681100D02*
X121570680Y-44021100D01*
X121570680Y-44021100D02*
X122415878Y-43175902D01*
X122415878Y-43175902D02*
X122415878Y-42207354D01*
X122415878Y-42207354D02*
X118109624Y-37901100D01*
X118109624Y-37901100D02*
X115710680Y-37901100D01*
G04 #@! TO.N,Net-(R12-Pad1)*
X101030680Y-48641100D02*
X108090680Y-55701100D01*
X101030680Y-44871100D02*
X101030680Y-48641100D01*
X102570680Y-43331100D02*
X101030680Y-44871100D01*
X103900680Y-43331100D02*
X102570680Y-43331100D01*
X106100680Y-45531100D02*
X103900680Y-43331100D01*
X107160680Y-45531100D02*
X106100680Y-45531100D01*
X114190680Y-38501100D02*
X107160680Y-45531100D01*
X118278568Y-38501100D02*
X114190680Y-38501100D01*
X122111076Y-42333608D02*
X118278568Y-38501100D01*
X122111076Y-43049648D02*
X122111076Y-42333608D01*
X121265878Y-43894846D02*
X122111076Y-43049648D01*
X121265878Y-45425902D02*
X121265878Y-43894846D01*
X121260680Y-45431100D02*
X121265878Y-45425902D01*
X108090680Y-55701100D02*
X112100580Y-55701100D01*
G04 #@! TO.N,Net-(R15-Pad1)*
X122510680Y-51135324D02*
X122510680Y-52411100D01*
X120691472Y-49316116D02*
X122510680Y-51135324D01*
X120691472Y-48001892D02*
X120691472Y-49316116D01*
X119520680Y-46831100D02*
X120691472Y-48001892D01*
G04 #@! TO.N,Net-(R18-Pad2)*
X116100780Y-43201200D02*
X120230580Y-43201200D01*
X114870680Y-41971100D02*
X116100780Y-43201200D01*
X120680680Y-43651300D02*
X120230580Y-43201200D01*
X120680680Y-43651300D02*
X120680680Y-45851100D01*
X120680680Y-45851100D02*
X121020680Y-46191100D01*
X121020680Y-46191100D02*
X121330680Y-46191100D01*
G04 #@! TO.N,Net-(U4-Pad25)*
X124171340Y-46700440D02*
X128300480Y-46700440D01*
X122930680Y-47941100D02*
X124171340Y-46700440D01*
G04 #@! TO.N,Net-(U4-Pad26)*
X124139064Y-46301660D02*
X128300480Y-46301660D01*
X123100152Y-47340572D02*
X124139064Y-46301660D01*
X122681208Y-47340572D02*
X123100152Y-47340572D01*
X122370680Y-47651100D02*
X122681208Y-47340572D01*
X122370680Y-48501100D02*
X122370680Y-47651100D01*
X122460680Y-48591100D02*
X122370680Y-48501100D01*
G04 #@! TO.N,Net-(U4-Pad27)*
X132200284Y-46700440D02*
X131500880Y-46700440D01*
X132465878Y-46434846D02*
X132200284Y-46700440D01*
X132465878Y-45057354D02*
X132465878Y-46434846D01*
X131529624Y-44121100D02*
X132465878Y-45057354D01*
X128040680Y-44121100D02*
X131529624Y-44121100D01*
X126566242Y-45595538D02*
X128040680Y-44121100D01*
X123983074Y-45595538D02*
X126566242Y-45595538D01*
X122847644Y-46730968D02*
X123983074Y-45595538D01*
X122428700Y-46730968D02*
X122847644Y-46730968D01*
X121605878Y-47553790D02*
X122428700Y-46730968D01*
X121605878Y-48937354D02*
X121605878Y-47553790D01*
X122659624Y-49991100D02*
X121605878Y-48937354D01*
X123490680Y-49991100D02*
X122659624Y-49991100D01*
X123760680Y-49721100D02*
X123490680Y-49991100D01*
X123760680Y-49051100D02*
X123760680Y-49721100D01*
X123430680Y-48721100D02*
X123760680Y-49051100D01*
G04 #@! TO.N,Net-(U4-Pad28)*
X123200680Y-49451100D02*
X122890680Y-49141100D01*
X122890680Y-49141100D02*
X122240680Y-49141100D01*
X122240680Y-49141100D02*
X121910680Y-48811100D01*
X121910680Y-48811100D02*
X121910680Y-47680044D01*
X121910680Y-47680044D02*
X122554954Y-47035770D01*
X122554954Y-47035770D02*
X122973898Y-47035770D01*
X122973898Y-47035770D02*
X124109328Y-45900340D01*
X124109328Y-45900340D02*
X128300480Y-45900340D01*
G04 #@! TO.N,Net-(U4-Pad38)*
X129700680Y-53311100D02*
X130310680Y-53311100D01*
X127840680Y-51451100D02*
X129700680Y-53311100D01*
X127840680Y-50291100D02*
X127840680Y-51451100D01*
X126700680Y-49151100D02*
X127840680Y-50291100D01*
G04 #@! TO.N,Net-(U4-Pad39)*
X127535878Y-52946298D02*
X127970680Y-53381100D01*
X127535878Y-50786298D02*
X127535878Y-52946298D01*
X126160680Y-49411100D02*
X127535878Y-50786298D01*
X126160680Y-48871100D02*
X126160680Y-49411100D01*
X125950680Y-48661100D02*
X126160680Y-48871100D01*
G04 #@! TO.N,Net-(U4-Pad40)*
X127715482Y-41456298D02*
X128350680Y-40821100D01*
X125824426Y-41456298D02*
X127715482Y-41456298D01*
X122905878Y-44374846D02*
X125824426Y-41456298D01*
X122905878Y-44644846D02*
X122905878Y-44374846D01*
X122425878Y-45124846D02*
X122905878Y-44644846D01*
X122425878Y-45871678D02*
X122425878Y-45124846D01*
X120996274Y-47301282D02*
X122425878Y-45871678D01*
X120996274Y-49189862D02*
X120996274Y-47301282D01*
X122407116Y-50600704D02*
X120996274Y-49189862D01*
X123743188Y-50600704D02*
X122407116Y-50600704D01*
X124370284Y-49973608D02*
X123743188Y-50600704D01*
X124370284Y-48032552D02*
X124370284Y-49973608D01*
X125092792Y-47310044D02*
X124370284Y-48032552D01*
X125319624Y-47310044D02*
X125092792Y-47310044D01*
X125570680Y-47561100D02*
X125319624Y-47310044D01*
G04 #@! TO.N,Net-(U4-Pad41)*
X130230680Y-41761100D02*
X131260680Y-40731100D01*
X125950680Y-41761100D02*
X130230680Y-41761100D01*
X123210680Y-44501100D02*
X125950680Y-41761100D01*
X123210680Y-44771100D02*
X123210680Y-44501100D01*
X122730680Y-45251100D02*
X123210680Y-44771100D01*
X122730680Y-46166166D02*
X122730680Y-45251100D01*
X122470680Y-46426166D02*
X122730680Y-46166166D01*
X122721390Y-46426166D02*
X122470680Y-46426166D01*
X122302446Y-46426166D02*
X122721390Y-46426166D01*
X121301076Y-47427536D02*
X122302446Y-46426166D01*
X121301076Y-49063608D02*
X121301076Y-47427536D01*
X122533370Y-50295902D02*
X121301076Y-49063608D01*
X123616934Y-50295902D02*
X122533370Y-50295902D01*
X124065482Y-49847354D02*
X123616934Y-50295902D01*
X124065482Y-47906298D02*
X124065482Y-49847354D01*
X124966538Y-47005242D02*
X124065482Y-47906298D01*
X125964822Y-47005242D02*
X124966538Y-47005242D01*
X126310680Y-47351100D02*
X125964822Y-47005242D01*
G04 #@! TO.N,Net-(U1-Pad2)*
X174891820Y-42402240D02*
X176981570Y-42402240D01*
X173430680Y-40941100D02*
X174891820Y-42402240D01*
G04 #@! TO.N,Net-(U1-Pad6)*
X173609540Y-39402240D02*
X176981570Y-39402240D01*
X172820680Y-40191100D02*
X173609540Y-39402240D01*
G04 #@! TO.N,Net-(R26-Pad1)*
X169590680Y-28221100D02*
X169590680Y-27721100D01*
X169590680Y-28221100D02*
X169590680Y-28821100D01*
X169590680Y-28821100D02*
X171750680Y-30981100D01*
X171750680Y-30981100D02*
X172650680Y-30981100D01*
D24*
G04 #@! TO.N,Net-(C19-Pad1)*
X170321249Y-25661669D02*
X170661249Y-25661669D01*
X169570680Y-24911100D02*
X170321249Y-25661669D01*
X170661249Y-25661669D02*
X172500680Y-27501100D01*
X172500680Y-27501100D02*
X173600680Y-27501100D01*
G04 #@! TO.N,Net-(P8-Pad1)*
X173500680Y-30301100D02*
X173500680Y-31401100D01*
X173500680Y-31401100D02*
X172600680Y-32301100D01*
X171070680Y-32301100D02*
X170570680Y-32801100D01*
X172600680Y-32301100D02*
X171070680Y-32301100D01*
X170570680Y-32801100D02*
X169900680Y-32801100D01*
X169650680Y-33051100D02*
X169650680Y-33721100D01*
X169900680Y-32801100D02*
X169650680Y-33051100D01*
D23*
G04 #@! TO.N,Net-(U10-Pad3)*
X176820680Y-51221100D02*
X176981570Y-51381990D01*
X172810680Y-52201100D02*
X173790680Y-51221100D01*
X173790680Y-51221100D02*
X176820680Y-51221100D01*
G04 #@! TO.N,Net-(U10-Pad4)*
X173450680Y-52881100D02*
X175150680Y-54581100D01*
X176820680Y-54581100D02*
X176981570Y-54420210D01*
X175150680Y-54581100D02*
X176820680Y-54581100D01*
G04 #@! TO.N,Net-(P8-Pad4)*
X177190680Y-33641100D02*
X177270680Y-33721100D01*
X177190680Y-24911100D02*
X177190680Y-33641100D01*
G04 #@! TO.N,Net-(P8-Pad3)*
X174650680Y-33641100D02*
X174730680Y-33721100D01*
X174650680Y-24911100D02*
X174650680Y-33641100D01*
G04 #@! TO.N,Net-(C19-Pad2)*
X172590680Y-33721100D02*
X172190680Y-33721100D01*
X173089851Y-23931929D02*
X175431509Y-23931929D01*
X172110680Y-24911100D02*
X173089851Y-23931929D01*
X178169851Y-26531929D02*
X178000680Y-26701100D01*
X178169851Y-24441097D02*
X178169851Y-26531929D01*
X175431509Y-23931929D02*
X177660683Y-23931929D01*
X177660683Y-23931929D02*
X178169851Y-24441097D01*
D24*
X173172146Y-24911100D02*
X174200680Y-25939634D01*
X172110680Y-24911100D02*
X173172146Y-24911100D01*
X174200680Y-25939634D02*
X174200680Y-32101100D01*
X173331249Y-32970531D02*
X174200680Y-32101100D01*
X172941249Y-32970531D02*
X173331249Y-32970531D01*
X172190680Y-33721100D02*
X172941249Y-32970531D01*
G04 #@! TD*
M02*
