M48
;DRILL file {KiCad (5.0.1)-3} date 2018/10/30 21:41:18
;FORMAT={3:3/ absolute / metric / suppress leading zeros}
FMAT,2
METRIC,TZ
T1C0.305
T2C0.701
T3C0.749
T4C0.800
T5C0.800
T6C2.000
%
G90
G05
M71
T1
X106571Y-41231
X108701Y-38601
X112101Y-55701
X114871Y-41971
X115711Y-37901
X116801Y-36071
X119091Y-44441
X119101Y-54601
X119201Y-34501
X119511Y-37301
X119521Y-46831
X120201Y-42411
X120231Y-43201
X120431Y-41681
X120791Y-38501
X121261Y-45431
X121331Y-46191
X121731Y-36461
X121901Y-45011
X122111Y-44271
X122401Y-41001
X122461Y-48591
X122511Y-52411
X122931Y-47941
X123201Y-49451
X123271Y-45501
X123431Y-48721
X123741Y-53261
X123861Y-51961
X124631Y-51961
X125571Y-47561
X125951Y-48661
X126311Y-47351
X126391Y-45011
X126411Y-51321
X126701Y-49151
X127761Y-43331
X127971Y-53381
X128351Y-40821
X128400Y-38700
X128641Y-43261
X128701Y-49701
X128701Y-51301
X130311Y-53311
X131261Y-40731
X133171Y-44541
X133331Y-45401
X133661Y-46931
X134241Y-53411
X135501Y-44581
X135681Y-37741
X135791Y-39681
X137651Y-37741
X137681Y-39681
X139061Y-47601
X139291Y-49311
X140000Y-46401
X141271Y-45841
X145931Y-42991
X146361Y-42101
X169591Y-27721
X172651Y-30981
X172811Y-52201
X172821Y-40191
X173431Y-40941
X173451Y-52881
X173501Y-30301
X173601Y-27501
X178001Y-26701
T2
X145301Y-54301
X145301Y-41201
X145301Y-52601
X145301Y-39501
T3
X117301Y-46152
X117301Y-47650
T4
X112001Y-44361
X112001Y-46901
X112001Y-49441
T5
X107373Y-50455
X109428Y-51948
X114580Y-57350
X115021Y-59852
X107373Y-43348
X109428Y-41855
X169571Y-24911
X172111Y-24911
X174651Y-24911
X177191Y-24911
X121280Y-59950
X121721Y-62452
X104373Y-46148
X106428Y-44655
X114580Y-36452
X115021Y-33950
X121280Y-33852
X121721Y-31350
X104373Y-47655
X106428Y-49148
X169651Y-33721
X172191Y-33721
X174731Y-33721
X177271Y-33721
T6
X125801Y-35401
X125801Y-58401
X141801Y-35401
X141801Y-58401
T0
M30
